<svg width="36" height="36" viewBox="0 0 36 36" fill="none" xmlns="http://www.w3.org/2000/svg">
<path d="M17.9984 11.0656C16.1589 11.0656 14.3947 11.7963 13.0939 13.0971C11.7932 14.3978 11.0624 16.162 11.0624 18.0016C11.0624 19.8411 11.7932 21.6053 13.0939 22.9061C14.3947 24.2068 16.1589 24.9376 17.9984 24.9376C19.838 24.9376 21.6022 24.2068 22.9029 22.9061C24.2037 21.6053 24.9344 19.8411 24.9344 18.0016C24.9344 16.162 24.2037 14.3978 22.9029 13.0971C21.6022 11.7963 19.838 11.0656 17.9984 11.0656ZM17.9984 22.5061C16.8034 22.5061 15.6572 22.0313 14.8122 21.1863C13.9672 20.3413 13.4924 19.1951 13.4924 18.0001C13.4924 16.805 13.9672 15.6589 14.8122 14.8138C15.6572 13.9688 16.8034 13.4941 17.9984 13.4941C19.1935 13.4941 20.3396 13.9688 21.1847 14.8138C22.0297 15.6589 22.5044 16.805 22.5044 18.0001C22.5044 19.1951 22.0297 20.3413 21.1847 21.1863C20.3396 22.0313 19.1935 22.5061 17.9984 22.5061Z" fill="black"/>
<path d="M25.2089 12.4276C26.102 12.4276 26.8259 11.7036 26.8259 10.8106C26.8259 9.91752 26.102 9.19357 25.2089 9.19357C24.3159 9.19357 23.5919 9.91752 23.5919 10.8106C23.5919 11.7036 24.3159 12.4276 25.2089 12.4276Z" fill="black"/>
<path d="M30.7994 9.16657C30.4522 8.26984 29.9215 7.45549 29.2414 6.77566C28.5613 6.09582 27.7468 5.56548 26.8499 5.21857C25.8004 4.8246 24.6917 4.61158 23.5709 4.58857C22.1264 4.52557 21.6689 4.50757 18.0059 4.50757C14.3429 4.50757 13.8734 4.50757 12.4409 4.58857C11.321 4.6104 10.2131 4.82347 9.16493 5.21857C8.26783 5.56507 7.45308 6.09527 6.77293 6.77516C6.09279 7.45505 5.56227 8.2696 5.21543 9.16657C4.82139 10.216 4.60885 11.3248 4.58693 12.4456C4.52243 13.8886 4.50293 14.3461 4.50293 18.0106C4.50293 21.6736 4.50293 22.1401 4.58693 23.5756C4.60943 24.6976 4.82093 25.8046 5.21543 26.8561C5.56325 27.7527 6.09427 28.5669 6.77458 29.2467C7.45489 29.9265 8.26953 30.4569 9.16643 30.8041C10.2126 31.2139 11.321 31.4421 12.4439 31.4791C13.8884 31.5421 14.3459 31.5616 18.0089 31.5616C21.6719 31.5616 22.1414 31.5616 23.5739 31.4791C24.6946 31.4563 25.8033 31.2438 26.8529 30.8506C27.7496 30.5029 28.5639 29.972 29.2439 29.292C29.9239 28.612 30.4547 27.7977 30.8024 26.9011C31.1969 25.8511 31.4084 24.7441 31.4309 23.6221C31.4954 22.1791 31.5149 21.7216 31.5149 18.0571C31.5149 14.3926 31.5149 13.9276 31.4309 12.4921C31.4135 11.3555 31.1998 10.2304 30.7994 9.16657ZM28.9724 23.4646C28.9628 24.329 28.805 25.1854 28.5059 25.9966C28.2807 26.5799 27.9358 27.1096 27.4935 27.5516C27.0513 27.9936 26.5214 28.3381 25.9379 28.5631C25.1358 28.8607 24.2885 29.0185 23.4329 29.0296C22.0079 29.0956 21.6059 29.1121 17.9519 29.1121C14.2949 29.1121 13.9214 29.1121 12.4694 29.0296C11.6143 29.0191 10.7674 28.8613 9.96593 28.5631C9.38046 28.3395 8.84843 27.9956 8.40426 27.5535C7.9601 27.1114 7.61368 26.581 7.38743 25.9966C7.0926 25.1941 6.9349 24.3478 6.92093 23.4931C6.85643 22.0681 6.84143 21.6661 6.84143 18.0121C6.84143 14.3566 6.84143 13.9831 6.92093 12.5296C6.93063 11.6656 7.08841 10.8097 7.38743 9.99907C7.84493 8.81557 8.78243 7.88407 9.96593 7.43107C10.7678 7.13428 11.6145 6.97651 12.4694 6.96457C13.8959 6.90007 14.2964 6.88207 17.9519 6.88207C21.6074 6.88207 21.9824 6.88207 23.4329 6.96457C24.2885 6.97486 25.136 7.13268 25.9379 7.43107C26.5213 7.65648 27.0511 8.00137 27.4934 8.44361C27.9356 8.88586 28.2805 9.41568 28.5059 9.99907C28.8008 10.8015 28.9585 11.6478 28.9724 12.5026C29.0369 13.9291 29.0534 14.3296 29.0534 17.9851C29.0534 21.6391 29.0534 22.0321 28.9889 23.4661H28.9724V23.4646Z" fill="black"/>
</svg>
